<svg width="16" height="17" viewBox="0 0 16 17" fill="none" xmlns="http://www.w3.org/2000/svg">
<path d="M12.7781 10.1482C12.7781 10.1482 12.7775 10.1475 12.777 10.147C12.1813 9.51846 11.3789 9.51846 10.7821 10.147C10.4263 10.5207 10.0701 10.8955 9.70372 11.2945C9.61648 11.2447 9.52728 11.198 9.43761 11.1518C9.30284 11.0818 9.16792 11.0124 9.04208 10.9289C8.09161 10.2947 7.2185 9.44883 6.37344 8.34374C5.94548 7.78326 5.65212 7.28966 5.44632 6.774C5.80618 6.40293 6.15905 6.02411 6.5108 5.64616C7.13206 4.9809 7.13076 4.15225 6.50755 3.48389C6.22246 3.17711 5.93332 2.86981 5.64547 2.56803L5.35097 2.25436C5.1541 2.04427 4.9569 1.83332 4.755 1.62133C4.14606 0.990884 3.3623 0.991401 2.75806 1.62323C2.61471 1.77403 2.47249 1.92673 2.3301 2.07891C2.10955 2.31623 1.88917 2.55287 1.66473 2.7814C1.27277 3.17832 1.0527 3.68088 1.01086 4.27531C0.959781 5.02829 1.08741 5.79127 1.42407 6.74815C1.94349 8.22826 2.73504 9.63134 3.8441 11.0375C5.22156 12.7839 6.88978 14.1706 8.80272 15.1596C9.8414 15.698 10.7335 15.9725 11.6111 16.0223C11.6729 16.0261 11.7334 16.028 11.7929 16.028C12.5229 16.028 13.0982 15.766 13.5473 15.2314C13.757 14.9834 13.9838 14.7499 14.2107 14.5164C14.3205 14.4028 14.4304 14.2892 14.5397 14.1736C15.1508 13.5178 15.1539 12.674 14.5462 12.0227L12.7781 10.1482ZM14.1084 13.7174C14.002 13.8304 13.8946 13.9414 13.7871 14.0526C13.5502 14.2963 13.3137 14.5405 13.094 14.8006C12.7342 15.2297 12.2704 15.4089 11.6437 15.3774C10.8503 15.3319 10.032 15.0782 9.06867 14.5789C7.23342 13.6296 5.63233 12.2986 4.31034 10.6222C3.24635 9.27338 2.48854 7.93217 1.9936 6.5222C1.68889 5.65633 1.57278 4.97779 1.61737 4.3227C1.64819 3.88787 1.80111 3.53628 2.08507 3.24846C2.31372 3.01562 2.53816 2.77502 2.7626 2.53391C2.90304 2.38311 3.0438 2.23161 3.18521 2.08322C3.36895 1.8914 3.56226 1.7954 3.75621 1.7954C3.95016 1.7954 4.14428 1.8914 4.32899 2.08253C4.52845 2.29211 4.72451 2.50099 4.92025 2.70988L5.21718 3.02613C5.50454 3.32774 5.79142 3.63262 6.07537 3.9382C6.46442 4.35545 6.46588 4.77701 6.07862 5.19099C5.72136 5.57532 5.36362 5.95966 4.99858 6.33468C4.81679 6.52082 4.7756 6.73677 4.87355 6.99736C5.09588 7.56662 5.42232 8.12399 5.90121 8.75134C6.7894 9.9121 7.71068 10.8038 8.72001 11.4774C8.86434 11.5727 9.01694 11.6528 9.17019 11.7323C9.26522 11.7815 9.3596 11.8307 9.45236 11.8844C9.62102 11.9823 9.87287 12.0416 10.1211 11.7671C10.4787 11.3752 10.8444 10.9908 11.2098 10.6063C11.5721 10.2239 11.9866 10.2244 12.3488 10.6056L14.115 12.4789C14.4856 12.8761 14.4831 13.316 14.1084 13.7174Z" stroke="#6578FF" stroke-width="0.8"/>
<path d="M12.7781 10.1482C12.7781 10.1482 12.7775 10.1475 12.777 10.147C12.1813 9.51846 11.3789 9.51846 10.7821 10.147C10.4263 10.5207 10.0701 10.8955 9.70372 11.2945C9.61648 11.2447 9.52728 11.198 9.43761 11.1518C9.30284 11.0818 9.16792 11.0124 9.04208 10.9289C8.09161 10.2947 7.2185 9.44883 6.37344 8.34374C5.94548 7.78326 5.65212 7.28966 5.44632 6.774C5.80618 6.40293 6.15905 6.02411 6.5108 5.64616C7.13206 4.9809 7.13076 4.15225 6.50755 3.48389C6.22246 3.17711 5.93332 2.86981 5.64547 2.56803L5.35097 2.25436C5.1541 2.04427 4.9569 1.83332 4.755 1.62133C4.14606 0.990884 3.3623 0.991401 2.75806 1.62323C2.61471 1.77403 2.47249 1.92673 2.3301 2.07891C2.10955 2.31623 1.88917 2.55287 1.66473 2.7814C1.27277 3.17832 1.0527 3.68088 1.01086 4.27531C0.959781 5.02829 1.08741 5.79127 1.42407 6.74815C1.94349 8.22826 2.73504 9.63134 3.8441 11.0375C5.22156 12.7839 6.88978 14.1706 8.80272 15.1596C9.8414 15.698 10.7335 15.9725 11.6111 16.0223C11.6729 16.0261 11.7334 16.028 11.7929 16.028C12.5229 16.028 13.0982 15.766 13.5473 15.2314C13.757 14.9834 13.9838 14.7499 14.2107 14.5164C14.3205 14.4028 14.4304 14.2892 14.5397 14.1736C15.1508 13.5178 15.1539 12.674 14.5462 12.0227L12.7781 10.1482ZM14.1084 13.7174C14.002 13.8304 13.8946 13.9414 13.7871 14.0526C13.5502 14.2963 13.3137 14.5405 13.094 14.8006C12.7342 15.2297 12.2704 15.4089 11.6437 15.3774C10.8503 15.3319 10.032 15.0782 9.06867 14.5789C7.23342 13.6296 5.63233 12.2986 4.31034 10.6222C3.24635 9.27338 2.48854 7.93217 1.9936 6.5222C1.68889 5.65633 1.57278 4.97779 1.61737 4.3227C1.64819 3.88787 1.80111 3.53628 2.08507 3.24846C2.31372 3.01562 2.53816 2.77502 2.7626 2.53391C2.90304 2.38311 3.0438 2.23161 3.18521 2.08322C3.36895 1.8914 3.56226 1.7954 3.75621 1.7954C3.95016 1.7954 4.14428 1.8914 4.32899 2.08253C4.52845 2.29211 4.72451 2.50099 4.92025 2.70988L5.21718 3.02613C5.50454 3.32774 5.79142 3.63262 6.07537 3.9382C6.46442 4.35545 6.46588 4.77701 6.07862 5.19099C5.72136 5.57532 5.36362 5.95966 4.99858 6.33468C4.81679 6.52082 4.7756 6.73677 4.87355 6.99736C5.09588 7.56662 5.42232 8.12399 5.90121 8.75134C6.7894 9.9121 7.71068 10.8038 8.72001 11.4774C8.86434 11.5727 9.01694 11.6528 9.17019 11.7323C9.26522 11.7815 9.3596 11.8307 9.45236 11.8844C9.62102 11.9823 9.87287 12.0416 10.1211 11.7671C10.4787 11.3752 10.8444 10.9908 11.2098 10.6063C11.5721 10.2239 11.9866 10.2244 12.3488 10.6056L14.115 12.4789C14.4856 12.8761 14.4831 13.316 14.1084 13.7174Z" stroke="#6578FF" stroke-width="0.8"/>
</svg>
